<?xml version="1.0" encoding="UTF-8"?>
<svg id="Livello_1" data-name="Livello 1" xmlns="http://www.w3.org/2000/svg" viewBox="0 0 824.52 558.25">
  <defs>
    <style>
      .cls-1 {
        stroke-width: 0px;
      }
    </style>
  </defs>
  <path class="cls-1" d="m340.39,345.42h-181.14l-83.78,202.28h67.18v10.56H0v-10.56h63.4L288.31,0h20.38l237.75,547.69h64.91v10.56h-253.59v-10.56h70.19l-87.56-202.28m-3.77-10.47l-89.06-205.94-84.53,205.94h173.59"/>
  <path class="cls-1" d="m662.21,21.05l130.57,375.73h1.52L927.12,21.05h188.98v10.57h-69.43v516.06h69.43v10.57h-247.84v-10.57h68.67V31.62h-1.51l-185.67,526.63h-12.08L551.26,31.62h-1.52v516.06h69.44v10.57h-150.96v-10.57h69.44V31.62h-69.44v-10.57h193.97Z"/>
</svg>